<?xml version="1.0" encoding="UTF-8" standalone="no" ?>
<!DOCTYPE svg PUBLIC "-//W3C//DTD SVG 1.1//EN" "http://www.w3.org/Graphics/SVG/1.1/DTD/svg11.dtd">
<svg xmlns="http://www.w3.org/2000/svg" xmlns:xlink="http://www.w3.org/1999/xlink" version="1.1" width="420" height="500" viewBox="0 0 420 500" xml:space="preserve">
<desc>Created with Fabric.js 4.6.0</desc>
<defs>
</defs>
<g transform="matrix(3.17 0 0 3.12 210 293.41)" id="-OUPDFEnExDU10I5Bp7p8"  >
<path style="stroke: rgb(0,0,0); stroke-width: 8; stroke-dasharray: none; stroke-linecap: butt; stroke-dashoffset: 0; stroke-linejoin: miter; stroke-miterlimit: 4; fill: rgb(181,161,114); fill-rule: nonzero; opacity: 1;" vector-effect="non-scaling-stroke"  transform=" translate(0, 0)" d="M -65 -65 L 65 -65 L 65 65 L -65 65 z" stroke-linecap="round" />
</g>
<g transform="matrix(2.97 0 0 1.24 106.86 46.64)" id="jhJo1qm3wAyn2zlRWtBIQ"  >
<path style="stroke: rgb(0,0,0); stroke-width: 8; stroke-dasharray: none; stroke-linecap: butt; stroke-dashoffset: 0; stroke-linejoin: miter; stroke-miterlimit: 4; fill: rgb(181,161,114); fill-rule: nonzero; opacity: 1;" vector-effect="non-scaling-stroke"  transform=" translate(0, 0)" d="M -34.5 -34.5 L 34.5 -34.5 L 34.5 34.5 L -34.5 34.5 z" stroke-linecap="round" />
</g>
<g transform="matrix(3.15 0 0 4.82 313.14 46.63)" id="qSlB_qNTG_xlDqddHjrvb"  >
<path style="stroke: rgb(0,0,0); stroke-width: 8; stroke-dasharray: none; stroke-linecap: butt; stroke-dashoffset: 0; stroke-linejoin: miter; stroke-miterlimit: 4; fill: rgb(181,161,114); fill-rule: nonzero; opacity: 1;" vector-effect="non-scaling-stroke"  transform=" translate(0, 0)" d="M -32.5 -8.86293 L 32.5 -8.86293 L 32.5 8.86293 L -32.5 8.86293 z" stroke-linecap="round" />
</g>
<g transform="matrix(1 0 0 1 208.89 292.32)" style="" id="dsLHn72s44TCXr9mzTMDT"  >
		<text xml:space="preserve" font-family="Oswald" font-size="62" font-style="normal" font-weight="600" line-height="1" style="stroke: none; stroke-width: 1; stroke-dasharray: none; stroke-linecap: butt; stroke-dashoffset: 0; stroke-linejoin: miter; stroke-miterlimit: 4; fill: rgb(0,0,0); fill-rule: nonzero; opacity: 1; white-space: pre;" ><tspan x="-180.44" y="-15.55" >SCHRÖDINGER</tspan><tspan x="-164.26" y="54.51" >ENTERPRISES</tspan></text>
</g>
</svg>