<?xml version="1.0" encoding="UTF-8" standalone="no" ?>
<!DOCTYPE svg PUBLIC "-//W3C//DTD SVG 1.1//EN" "http://www.w3.org/Graphics/SVG/1.1/DTD/svg11.dtd">
<svg xmlns="http://www.w3.org/2000/svg" xmlns:xlink="http://www.w3.org/1999/xlink" version="1.1" width="1980" height="400" viewBox="0 0 1980 400" xml:space="preserve">
<desc>Created with Fabric.js 4.6.0</desc>
<defs>
</defs>
<g transform="matrix(1.65 0 0 0.11 980.56 181.29)" id="TNH9IR5rrbxhcLOdZeVRD"  >
<path style="stroke: rgb(161,117,25); stroke-width: 0; stroke-dasharray: none; stroke-linecap: butt; stroke-dashoffset: 0; stroke-linejoin: miter; stroke-miterlimit: 4; fill: rgb(0,0,0); fill-rule: nonzero; opacity: 1;" vector-effect="non-scaling-stroke"  transform=" translate(0, 0)" d="M -595.5 -595.5 L 595.5 -595.5 L 595.5 595.5 L -595.5 595.5 z" stroke-linecap="round" />
</g>
<g transform="matrix(1 0 0 1 20 180)" id="ugAJIcWgBwHuKu5gX34pe"  >
<path style="stroke: rgb(173,239,233); stroke-width: 0; stroke-dasharray: none; stroke-linecap: butt; stroke-dashoffset: 0; stroke-linejoin: miter; stroke-miterlimit: 4; fill: rgb(89,89,89); fill-rule: nonzero; opacity: 1;" vector-effect="non-scaling-stroke"  transform=" translate(0, 0)" d="M -20 -60 L 20 -60 L 20 60 L -20 60 z" stroke-linecap="round" />
</g>
<g transform="matrix(1 0 0 1 20 250)" id="kT-PiMWsWydQCz0VwD298"  >
<path style="stroke: rgb(172,255,42); stroke-width: 0; stroke-dasharray: none; stroke-linecap: butt; stroke-dashoffset: 0; stroke-linejoin: miter; stroke-miterlimit: 4; fill: rgb(27,27,27); fill-rule: nonzero; opacity: 1;" vector-effect="non-scaling-stroke"  transform=" translate(-20, -20)" d="M 20 0 C 31.04 0 40 8.96 40 20 C 40 31.04 31.04 40 20 40 C 8.96 40 0 31.04 0 20 C 0 8.96 8.96 0 20 0 z" stroke-linecap="round" />
</g>
<g transform="matrix(1.03 0 0 1 65.64 180)" id="qMeA4WdEBfVGbr0DOqg3Q"  >
<path style="stroke: rgb(173,239,233); stroke-width: 0; stroke-dasharray: none; stroke-linecap: butt; stroke-dashoffset: 0; stroke-linejoin: miter; stroke-miterlimit: 4; fill: rgb(89,89,89); fill-rule: nonzero; opacity: 1;" vector-effect="non-scaling-stroke"  transform=" translate(0, 0)" d="M -20 -60 L 20 -60 L 20 60 L -20 60 z" stroke-linecap="round" />
</g>
<g transform="matrix(1.03 0 0 1 110.6 180)" id="zY60a0X6_ZkOs1at3a0TI"  >
<path style="stroke: rgb(173,239,233); stroke-width: 0; stroke-dasharray: none; stroke-linecap: butt; stroke-dashoffset: 0; stroke-linejoin: miter; stroke-miterlimit: 4; fill: rgb(89,89,89); fill-rule: nonzero; opacity: 1;" vector-effect="non-scaling-stroke"  transform=" translate(0, 0)" d="M -20 -60 L 20 -60 L 20 60 L -20 60 z" stroke-linecap="round" />
</g>
<g transform="matrix(1.03 0 0 1 155.6 180)" id="XyCwhY0tUI4BzaIHiEXoD"  >
<path style="stroke: rgb(173,239,233); stroke-width: 0; stroke-dasharray: none; stroke-linecap: butt; stroke-dashoffset: 0; stroke-linejoin: miter; stroke-miterlimit: 4; fill: rgb(89,89,89); fill-rule: nonzero; opacity: 1;" vector-effect="non-scaling-stroke"  transform=" translate(0, 0)" d="M -20 -60 L 20 -60 L 20 60 L -20 60 z" stroke-linecap="round" />
</g>
<g transform="matrix(1.03 0 0 1 200.6 180)" id="64MUS0ySS54-TJJH_8lRQ"  >
<path style="stroke: rgb(173,239,233); stroke-width: 0; stroke-dasharray: none; stroke-linecap: butt; stroke-dashoffset: 0; stroke-linejoin: miter; stroke-miterlimit: 4; fill: rgb(89,89,89); fill-rule: nonzero; opacity: 1;" vector-effect="non-scaling-stroke"  transform=" translate(0, 0)" d="M -20 -60 L 20 -60 L 20 60 L -20 60 z" stroke-linecap="round" />
</g>
<g transform="matrix(1 0 0 1 245 180)" id="8vkxmKxbCPy37CbPXP694"  >
<path style="stroke: rgb(173,239,233); stroke-width: 0; stroke-dasharray: none; stroke-linecap: butt; stroke-dashoffset: 0; stroke-linejoin: miter; stroke-miterlimit: 4; fill: rgb(89,89,89); fill-rule: nonzero; opacity: 1;" vector-effect="non-scaling-stroke"  transform=" translate(0, 0)" d="M -20 -60 L 20 -60 L 20 60 L -20 60 z" stroke-linecap="round" />
</g>
<g transform="matrix(1.03 0 0 1 290.64 180)" id="h6WzRBGKVNbSremKccEfj"  >
<path style="stroke: rgb(173,239,233); stroke-width: 0; stroke-dasharray: none; stroke-linecap: butt; stroke-dashoffset: 0; stroke-linejoin: miter; stroke-miterlimit: 4; fill: rgb(89,89,89); fill-rule: nonzero; opacity: 1;" vector-effect="non-scaling-stroke"  transform=" translate(0, 0)" d="M -20 -60 L 20 -60 L 20 60 L -20 60 z" stroke-linecap="round" />
</g>
<g transform="matrix(1.03 0 0 1 335.6 180)" id="H_PwBc5582M5jyb3VfjpA"  >
<path style="stroke: rgb(173,239,233); stroke-width: 0; stroke-dasharray: none; stroke-linecap: butt; stroke-dashoffset: 0; stroke-linejoin: miter; stroke-miterlimit: 4; fill: rgb(89,89,89); fill-rule: nonzero; opacity: 1;" vector-effect="non-scaling-stroke"  transform=" translate(0, 0)" d="M -20 -60 L 20 -60 L 20 60 L -20 60 z" stroke-linecap="round" />
</g>
<g transform="matrix(1.03 0 0 1 380.6 180)" id="GM-TJxLo8dpY3CKtxU9gS"  >
<path style="stroke: rgb(173,239,233); stroke-width: 0; stroke-dasharray: none; stroke-linecap: butt; stroke-dashoffset: 0; stroke-linejoin: miter; stroke-miterlimit: 4; fill: rgb(89,89,89); fill-rule: nonzero; opacity: 1;" vector-effect="non-scaling-stroke"  transform=" translate(0, 0)" d="M -20 -60 L 20 -60 L 20 60 L -20 60 z" stroke-linecap="round" />
</g>
<g transform="matrix(1.03 0 0 1 425.6 180)" id="LtS0W64JeynrdozRQmEb1"  >
<path style="stroke: rgb(173,239,233); stroke-width: 0; stroke-dasharray: none; stroke-linecap: butt; stroke-dashoffset: 0; stroke-linejoin: miter; stroke-miterlimit: 4; fill: rgb(89,89,89); fill-rule: nonzero; opacity: 1;" vector-effect="non-scaling-stroke"  transform=" translate(0, 0)" d="M -20 -60 L 20 -60 L 20 60 L -20 60 z" stroke-linecap="round" />
</g>
<g transform="matrix(1 0 0 1 470 180)" id="uL92jP936Wl3Z7i5GkZAF"  >
<path style="stroke: rgb(173,239,233); stroke-width: 0; stroke-dasharray: none; stroke-linecap: butt; stroke-dashoffset: 0; stroke-linejoin: miter; stroke-miterlimit: 4; fill: rgb(89,89,89); fill-rule: nonzero; opacity: 1;" vector-effect="non-scaling-stroke"  transform=" translate(0, 0)" d="M -20 -60 L 20 -60 L 20 60 L -20 60 z" stroke-linecap="round" />
</g>
<g transform="matrix(1.03 0 0 1 515.64 180)" id="rm5pj9YOM3LK5vYJXpZ5g"  >
<path style="stroke: rgb(173,239,233); stroke-width: 0; stroke-dasharray: none; stroke-linecap: butt; stroke-dashoffset: 0; stroke-linejoin: miter; stroke-miterlimit: 4; fill: rgb(89,89,89); fill-rule: nonzero; opacity: 1;" vector-effect="non-scaling-stroke"  transform=" translate(0, 0)" d="M -20 -60 L 20 -60 L 20 60 L -20 60 z" stroke-linecap="round" />
</g>
<g transform="matrix(1.03 0 0 1 560.6 180)" id="Wvu11A2yns4Gc3yCTf2jU"  >
<path style="stroke: rgb(173,239,233); stroke-width: 0; stroke-dasharray: none; stroke-linecap: butt; stroke-dashoffset: 0; stroke-linejoin: miter; stroke-miterlimit: 4; fill: rgb(89,89,89); fill-rule: nonzero; opacity: 1;" vector-effect="non-scaling-stroke"  transform=" translate(0, 0)" d="M -20 -60 L 20 -60 L 20 60 L -20 60 z" stroke-linecap="round" />
</g>
<g transform="matrix(1.03 0 0 1 605.6 180)" id="Usfrw9dHox_HY84qZTOfb"  >
<path style="stroke: rgb(173,239,233); stroke-width: 0; stroke-dasharray: none; stroke-linecap: butt; stroke-dashoffset: 0; stroke-linejoin: miter; stroke-miterlimit: 4; fill: rgb(89,89,89); fill-rule: nonzero; opacity: 1;" vector-effect="non-scaling-stroke"  transform=" translate(0, 0)" d="M -20 -60 L 20 -60 L 20 60 L -20 60 z" stroke-linecap="round" />
</g>
<g transform="matrix(1.03 0 0 1 650.6 180)" id="WqNg_7sUzWZ-pkr4qqDT7"  >
<path style="stroke: rgb(173,239,233); stroke-width: 0; stroke-dasharray: none; stroke-linecap: butt; stroke-dashoffset: 0; stroke-linejoin: miter; stroke-miterlimit: 4; fill: rgb(89,89,89); fill-rule: nonzero; opacity: 1;" vector-effect="non-scaling-stroke"  transform=" translate(0, 0)" d="M -20 -60 L 20 -60 L 20 60 L -20 60 z" stroke-linecap="round" />
</g>
<g transform="matrix(1 0 0 1 695 180)" id="1gcFE2Nq_rtWHpkjXROhj"  >
<path style="stroke: rgb(173,239,233); stroke-width: 0; stroke-dasharray: none; stroke-linecap: butt; stroke-dashoffset: 0; stroke-linejoin: miter; stroke-miterlimit: 4; fill: rgb(89,89,89); fill-rule: nonzero; opacity: 1;" vector-effect="non-scaling-stroke"  transform=" translate(0, 0)" d="M -20 -60 L 20 -60 L 20 60 L -20 60 z" stroke-linecap="round" />
</g>
<g transform="matrix(1.03 0 0 1 740.64 180)" id="kLJ1kDfwdzvJlOK-Br-kQ"  >
<path style="stroke: rgb(173,239,233); stroke-width: 0; stroke-dasharray: none; stroke-linecap: butt; stroke-dashoffset: 0; stroke-linejoin: miter; stroke-miterlimit: 4; fill: rgb(89,89,89); fill-rule: nonzero; opacity: 1;" vector-effect="non-scaling-stroke"  transform=" translate(0, 0)" d="M -20 -60 L 20 -60 L 20 60 L -20 60 z" stroke-linecap="round" />
</g>
<g transform="matrix(1.03 0 0 1 785.6 180)" id="Sa9XyY5GRoWF0bWH1p9wU"  >
<path style="stroke: rgb(173,239,233); stroke-width: 0; stroke-dasharray: none; stroke-linecap: butt; stroke-dashoffset: 0; stroke-linejoin: miter; stroke-miterlimit: 4; fill: rgb(89,89,89); fill-rule: nonzero; opacity: 1;" vector-effect="non-scaling-stroke"  transform=" translate(0, 0)" d="M -20 -60 L 20 -60 L 20 60 L -20 60 z" stroke-linecap="round" />
</g>
<g transform="matrix(1.03 0 0 1 830.6 180)" id="vvvgG6xbLfef6A88cQr3a"  >
<path style="stroke: rgb(173,239,233); stroke-width: 0; stroke-dasharray: none; stroke-linecap: butt; stroke-dashoffset: 0; stroke-linejoin: miter; stroke-miterlimit: 4; fill: rgb(89,89,89); fill-rule: nonzero; opacity: 1;" vector-effect="non-scaling-stroke"  transform=" translate(0, 0)" d="M -20 -60 L 20 -60 L 20 60 L -20 60 z" stroke-linecap="round" />
</g>
<g transform="matrix(1.03 0 0 1 875.6 180)" id="Gpf6mY1Qr9_21_tZxEZgw"  >
<path style="stroke: rgb(173,239,233); stroke-width: 0; stroke-dasharray: none; stroke-linecap: butt; stroke-dashoffset: 0; stroke-linejoin: miter; stroke-miterlimit: 4; fill: rgb(89,89,89); fill-rule: nonzero; opacity: 1;" vector-effect="non-scaling-stroke"  transform=" translate(0, 0)" d="M -20 -60 L 20 -60 L 20 60 L -20 60 z" stroke-linecap="round" />
</g>
<g transform="matrix(1 0 0 1 920 180)" id="tqUQcVnQVp7wllOEL0oi0"  >
<path style="stroke: rgb(173,239,233); stroke-width: 0; stroke-dasharray: none; stroke-linecap: butt; stroke-dashoffset: 0; stroke-linejoin: miter; stroke-miterlimit: 4; fill: rgb(89,89,89); fill-rule: nonzero; opacity: 1;" vector-effect="non-scaling-stroke"  transform=" translate(0, 0)" d="M -20 -60 L 20 -60 L 20 60 L -20 60 z" stroke-linecap="round" />
</g>
<g transform="matrix(1.03 0 0 1 965.64 180)" id="DMp9TWfnAJPqNmiFDVkrK"  >
<path style="stroke: rgb(173,239,233); stroke-width: 0; stroke-dasharray: none; stroke-linecap: butt; stroke-dashoffset: 0; stroke-linejoin: miter; stroke-miterlimit: 4; fill: rgb(89,89,89); fill-rule: nonzero; opacity: 1;" vector-effect="non-scaling-stroke"  transform=" translate(0, 0)" d="M -20 -60 L 20 -60 L 20 60 L -20 60 z" stroke-linecap="round" />
</g>
<g transform="matrix(1.03 0 0 1 1010.6 180)" id="aNZUTarW80A7N3vW8cxAx"  >
<path style="stroke: rgb(173,239,233); stroke-width: 0; stroke-dasharray: none; stroke-linecap: butt; stroke-dashoffset: 0; stroke-linejoin: miter; stroke-miterlimit: 4; fill: rgb(89,89,89); fill-rule: nonzero; opacity: 1;" vector-effect="non-scaling-stroke"  transform=" translate(0, 0)" d="M -20 -60 L 20 -60 L 20 60 L -20 60 z" stroke-linecap="round" />
</g>
<g transform="matrix(1.03 0 0 1 1055.6 180)" id="hEoVT_QitdqhkG-azruTX"  >
<path style="stroke: rgb(173,239,233); stroke-width: 0; stroke-dasharray: none; stroke-linecap: butt; stroke-dashoffset: 0; stroke-linejoin: miter; stroke-miterlimit: 4; fill: rgb(89,89,89); fill-rule: nonzero; opacity: 1;" vector-effect="non-scaling-stroke"  transform=" translate(0, 0)" d="M -20 -60 L 20 -60 L 20 60 L -20 60 z" stroke-linecap="round" />
</g>
<g transform="matrix(1.03 0 0 1 1100.6 180)" id="oPNX0bnY7IUprlJT1TFDn"  >
<path style="stroke: rgb(173,239,233); stroke-width: 0; stroke-dasharray: none; stroke-linecap: butt; stroke-dashoffset: 0; stroke-linejoin: miter; stroke-miterlimit: 4; fill: rgb(89,89,89); fill-rule: nonzero; opacity: 1;" vector-effect="non-scaling-stroke"  transform=" translate(0, 0)" d="M -20 -60 L 20 -60 L 20 60 L -20 60 z" stroke-linecap="round" />
</g>
<g transform="matrix(1 0 0 1 1145 180)" id="F1i3WF9U2yMOVzTFC8ASZ"  >
<path style="stroke: rgb(173,239,233); stroke-width: 0; stroke-dasharray: none; stroke-linecap: butt; stroke-dashoffset: 0; stroke-linejoin: miter; stroke-miterlimit: 4; fill: rgb(89,89,89); fill-rule: nonzero; opacity: 1;" vector-effect="non-scaling-stroke"  transform=" translate(0, 0)" d="M -20 -60 L 20 -60 L 20 60 L -20 60 z" stroke-linecap="round" />
</g>
<g transform="matrix(1.03 0 0 1 1190.64 180)" id="ZYRcSAL26FO42pHKmVRCN"  >
<path style="stroke: rgb(173,239,233); stroke-width: 0; stroke-dasharray: none; stroke-linecap: butt; stroke-dashoffset: 0; stroke-linejoin: miter; stroke-miterlimit: 4; fill: rgb(89,89,89); fill-rule: nonzero; opacity: 1;" vector-effect="non-scaling-stroke"  transform=" translate(0, 0)" d="M -20 -60 L 20 -60 L 20 60 L -20 60 z" stroke-linecap="round" />
</g>
<g transform="matrix(1.03 0 0 1 1235.6 180)" id="UQJ6tvWt_AtQfHy64EOkl"  >
<path style="stroke: rgb(173,239,233); stroke-width: 0; stroke-dasharray: none; stroke-linecap: butt; stroke-dashoffset: 0; stroke-linejoin: miter; stroke-miterlimit: 4; fill: rgb(89,89,89); fill-rule: nonzero; opacity: 1;" vector-effect="non-scaling-stroke"  transform=" translate(0, 0)" d="M -20 -60 L 20 -60 L 20 60 L -20 60 z" stroke-linecap="round" />
</g>
<g transform="matrix(1.03 0 0 1 1280.6 180)" id="huGks4Uq2mB0RlpCAKuQJ"  >
<path style="stroke: rgb(173,239,233); stroke-width: 0; stroke-dasharray: none; stroke-linecap: butt; stroke-dashoffset: 0; stroke-linejoin: miter; stroke-miterlimit: 4; fill: rgb(89,89,89); fill-rule: nonzero; opacity: 1;" vector-effect="non-scaling-stroke"  transform=" translate(0, 0)" d="M -20 -60 L 20 -60 L 20 60 L -20 60 z" stroke-linecap="round" />
</g>
<g transform="matrix(1.03 0 0 1 1325.6 180)" id="4PB1TNd1gKzeB66kFafK8"  >
<path style="stroke: rgb(173,239,233); stroke-width: 0; stroke-dasharray: none; stroke-linecap: butt; stroke-dashoffset: 0; stroke-linejoin: miter; stroke-miterlimit: 4; fill: rgb(89,89,89); fill-rule: nonzero; opacity: 1;" vector-effect="non-scaling-stroke"  transform=" translate(0, 0)" d="M -20 -60 L 20 -60 L 20 60 L -20 60 z" stroke-linecap="round" />
</g>
<g transform="matrix(1 0 0 1 1370 180)" id="ARQ3-5fk0aD2GoVxWOKpI"  >
<path style="stroke: rgb(173,239,233); stroke-width: 0; stroke-dasharray: none; stroke-linecap: butt; stroke-dashoffset: 0; stroke-linejoin: miter; stroke-miterlimit: 4; fill: rgb(89,89,89); fill-rule: nonzero; opacity: 1;" vector-effect="non-scaling-stroke"  transform=" translate(0, 0)" d="M -20 -60 L 20 -60 L 20 60 L -20 60 z" stroke-linecap="round" />
</g>
<g transform="matrix(1.03 0 0 1 1415.64 180)" id="tUmJCZTZp3hIJfr4B718V"  >
<path style="stroke: rgb(173,239,233); stroke-width: 0; stroke-dasharray: none; stroke-linecap: butt; stroke-dashoffset: 0; stroke-linejoin: miter; stroke-miterlimit: 4; fill: rgb(89,89,89); fill-rule: nonzero; opacity: 1;" vector-effect="non-scaling-stroke"  transform=" translate(0, 0)" d="M -20 -60 L 20 -60 L 20 60 L -20 60 z" stroke-linecap="round" />
</g>
<g transform="matrix(1.03 0 0 1 1460.6 180)" id="LuB_rIZqwecj0zwhKO1j9"  >
<path style="stroke: rgb(173,239,233); stroke-width: 0; stroke-dasharray: none; stroke-linecap: butt; stroke-dashoffset: 0; stroke-linejoin: miter; stroke-miterlimit: 4; fill: rgb(89,89,89); fill-rule: nonzero; opacity: 1;" vector-effect="non-scaling-stroke"  transform=" translate(0, 0)" d="M -20 -60 L 20 -60 L 20 60 L -20 60 z" stroke-linecap="round" />
</g>
<g transform="matrix(1.03 0 0 1 1505.6 180)" id="BvLNwe7621PF77mXzcssa"  >
<path style="stroke: rgb(173,239,233); stroke-width: 0; stroke-dasharray: none; stroke-linecap: butt; stroke-dashoffset: 0; stroke-linejoin: miter; stroke-miterlimit: 4; fill: rgb(89,89,89); fill-rule: nonzero; opacity: 1;" vector-effect="non-scaling-stroke"  transform=" translate(0, 0)" d="M -20 -60 L 20 -60 L 20 60 L -20 60 z" stroke-linecap="round" />
</g>
<g transform="matrix(1.03 0 0 1 1550.6 180)" id="DEPmMtbgDpHYFZmJIFVXc"  >
<path style="stroke: rgb(173,239,233); stroke-width: 0; stroke-dasharray: none; stroke-linecap: butt; stroke-dashoffset: 0; stroke-linejoin: miter; stroke-miterlimit: 4; fill: rgb(89,89,89); fill-rule: nonzero; opacity: 1;" vector-effect="non-scaling-stroke"  transform=" translate(0, 0)" d="M -20 -60 L 20 -60 L 20 60 L -20 60 z" stroke-linecap="round" />
</g>
<g transform="matrix(1 0 0 1 1595 180)" id="eNsFuVhaKLgfJkTeteEjq"  >
<path style="stroke: rgb(173,239,233); stroke-width: 0; stroke-dasharray: none; stroke-linecap: butt; stroke-dashoffset: 0; stroke-linejoin: miter; stroke-miterlimit: 4; fill: rgb(89,89,89); fill-rule: nonzero; opacity: 1;" vector-effect="non-scaling-stroke"  transform=" translate(0, 0)" d="M -20 -60 L 20 -60 L 20 60 L -20 60 z" stroke-linecap="round" />
</g>
<g transform="matrix(1.03 0 0 1 1640.64 180)" id="v4fo5C9qZIe9ny3jTMzbN"  >
<path style="stroke: rgb(173,239,233); stroke-width: 0; stroke-dasharray: none; stroke-linecap: butt; stroke-dashoffset: 0; stroke-linejoin: miter; stroke-miterlimit: 4; fill: rgb(89,89,89); fill-rule: nonzero; opacity: 1;" vector-effect="non-scaling-stroke"  transform=" translate(0, 0)" d="M -20 -60 L 20 -60 L 20 60 L -20 60 z" stroke-linecap="round" />
</g>
<g transform="matrix(1.03 0 0 1 1685.6 180)" id="KIi4yd8UpLBjqXq1Pxj_n"  >
<path style="stroke: rgb(173,239,233); stroke-width: 0; stroke-dasharray: none; stroke-linecap: butt; stroke-dashoffset: 0; stroke-linejoin: miter; stroke-miterlimit: 4; fill: rgb(89,89,89); fill-rule: nonzero; opacity: 1;" vector-effect="non-scaling-stroke"  transform=" translate(0, 0)" d="M -20 -60 L 20 -60 L 20 60 L -20 60 z" stroke-linecap="round" />
</g>
<g transform="matrix(1.03 0 0 1 1730.6 180)" id="c7foHHdPt8RcGX-3-kvkf"  >
<path style="stroke: rgb(173,239,233); stroke-width: 0; stroke-dasharray: none; stroke-linecap: butt; stroke-dashoffset: 0; stroke-linejoin: miter; stroke-miterlimit: 4; fill: rgb(89,89,89); fill-rule: nonzero; opacity: 1;" vector-effect="non-scaling-stroke"  transform=" translate(0, 0)" d="M -20 -60 L 20 -60 L 20 60 L -20 60 z" stroke-linecap="round" />
</g>
<g transform="matrix(1.03 0 0 1 1775.6 180)" id="hYpP6w3GRTweLjpb1UgEW"  >
<path style="stroke: rgb(173,239,233); stroke-width: 0; stroke-dasharray: none; stroke-linecap: butt; stroke-dashoffset: 0; stroke-linejoin: miter; stroke-miterlimit: 4; fill: rgb(89,89,89); fill-rule: nonzero; opacity: 1;" vector-effect="non-scaling-stroke"  transform=" translate(0, 0)" d="M -20 -60 L 20 -60 L 20 60 L -20 60 z" stroke-linecap="round" />
</g>
<g transform="matrix(1 0 0 1 1820 180)" id="0qQ8gBACoNAz3Plz3gz-d"  >
<path style="stroke: rgb(173,239,233); stroke-width: 0; stroke-dasharray: none; stroke-linecap: butt; stroke-dashoffset: 0; stroke-linejoin: miter; stroke-miterlimit: 4; fill: rgb(89,89,89); fill-rule: nonzero; opacity: 1;" vector-effect="non-scaling-stroke"  transform=" translate(0, 0)" d="M -20 -60 L 20 -60 L 20 60 L -20 60 z" stroke-linecap="round" />
</g>
<g transform="matrix(1.03 0 0 1 1865.64 180)" id="RV0fRYaOD6KYz6qkEM_8o"  >
<path style="stroke: rgb(173,239,233); stroke-width: 0; stroke-dasharray: none; stroke-linecap: butt; stroke-dashoffset: 0; stroke-linejoin: miter; stroke-miterlimit: 4; fill: rgb(89,89,89); fill-rule: nonzero; opacity: 1;" vector-effect="non-scaling-stroke"  transform=" translate(0, 0)" d="M -20 -60 L 20 -60 L 20 60 L -20 60 z" stroke-linecap="round" />
</g>
<g transform="matrix(1.03 0 0 1 1910.6 180)" id="ZrSGT0MWI407EanOcxKpW"  >
<path style="stroke: rgb(173,239,233); stroke-width: 0; stroke-dasharray: none; stroke-linecap: butt; stroke-dashoffset: 0; stroke-linejoin: miter; stroke-miterlimit: 4; fill: rgb(89,89,89); fill-rule: nonzero; opacity: 1;" vector-effect="non-scaling-stroke"  transform=" translate(0, 0)" d="M -20 -60 L 20 -60 L 20 60 L -20 60 z" stroke-linecap="round" />
</g>
<g transform="matrix(1.03 0 0 1 1955.6 180)" id="rv7onJHUintnDP0Yz2AMi"  >
<path style="stroke: rgb(173,239,233); stroke-width: 0; stroke-dasharray: none; stroke-linecap: butt; stroke-dashoffset: 0; stroke-linejoin: miter; stroke-miterlimit: 4; fill: rgb(89,89,89); fill-rule: nonzero; opacity: 1;" vector-effect="non-scaling-stroke"  transform=" translate(0, 0)" d="M -20 -60 L 20 -60 L 20 60 L -20 60 z" stroke-linecap="round" />
</g>
<g transform="matrix(1 0 0 1 65 250)" id="niZqBfVQJauH2NxvXaLVG"  >
<path style="stroke: rgb(172,255,42); stroke-width: 0; stroke-dasharray: none; stroke-linecap: butt; stroke-dashoffset: 0; stroke-linejoin: miter; stroke-miterlimit: 4; fill: rgb(27,27,27); fill-rule: nonzero; opacity: 1;" vector-effect="non-scaling-stroke"  transform=" translate(-20, -20)" d="M 20 0 C 31.04 0 40 8.96 40 20 C 40 31.04 31.04 40 20 40 C 8.96 40 0 31.04 0 20 C 0 8.96 8.96 0 20 0 z" stroke-linecap="round" />
</g>
<g transform="matrix(1 0 0 1 110 250)" id="h5x8Gno3hf45ekicENHRG"  >
<path style="stroke: rgb(172,255,42); stroke-width: 0; stroke-dasharray: none; stroke-linecap: butt; stroke-dashoffset: 0; stroke-linejoin: miter; stroke-miterlimit: 4; fill: rgb(27,27,27); fill-rule: nonzero; opacity: 1;" vector-effect="non-scaling-stroke"  transform=" translate(-20, -20)" d="M 20 0 C 31.04 0 40 8.96 40 20 C 40 31.04 31.04 40 20 40 C 8.96 40 0 31.04 0 20 C 0 8.96 8.96 0 20 0 z" stroke-linecap="round" />
</g>
<g transform="matrix(1 0 0 1 155 250)" id="D-eIYh3_7rTB32PbEv0x-"  >
<path style="stroke: rgb(172,255,42); stroke-width: 0; stroke-dasharray: none; stroke-linecap: butt; stroke-dashoffset: 0; stroke-linejoin: miter; stroke-miterlimit: 4; fill: rgb(27,27,27); fill-rule: nonzero; opacity: 1;" vector-effect="non-scaling-stroke"  transform=" translate(-20, -20)" d="M 20 0 C 31.04 0 40 8.96 40 20 C 40 31.04 31.04 40 20 40 C 8.96 40 0 31.04 0 20 C 0 8.96 8.96 0 20 0 z" stroke-linecap="round" />
</g>
<g transform="matrix(1 0 0 1 200 250)" id="qUkhju8Bpbwex4d_kqXnC"  >
<path style="stroke: rgb(172,255,42); stroke-width: 0; stroke-dasharray: none; stroke-linecap: butt; stroke-dashoffset: 0; stroke-linejoin: miter; stroke-miterlimit: 4; fill: rgb(27,27,27); fill-rule: nonzero; opacity: 1;" vector-effect="non-scaling-stroke"  transform=" translate(-20, -20)" d="M 20 0 C 31.04 0 40 8.96 40 20 C 40 31.04 31.04 40 20 40 C 8.96 40 0 31.04 0 20 C 0 8.96 8.96 0 20 0 z" stroke-linecap="round" />
</g>
<g transform="matrix(1 0 0 1 245 250)" id="i8ENrbELVAz_DymCo_85R"  >
<path style="stroke: rgb(172,255,42); stroke-width: 0; stroke-dasharray: none; stroke-linecap: butt; stroke-dashoffset: 0; stroke-linejoin: miter; stroke-miterlimit: 4; fill: rgb(27,27,27); fill-rule: nonzero; opacity: 1;" vector-effect="non-scaling-stroke"  transform=" translate(-20, -20)" d="M 20 0 C 31.04 0 40 8.96 40 20 C 40 31.04 31.04 40 20 40 C 8.96 40 0 31.04 0 20 C 0 8.96 8.96 0 20 0 z" stroke-linecap="round" />
</g>
<g transform="matrix(1 0 0 1 290 250)" id="2gafls8shvDTbH2JSU_AO"  >
<path style="stroke: rgb(172,255,42); stroke-width: 0; stroke-dasharray: none; stroke-linecap: butt; stroke-dashoffset: 0; stroke-linejoin: miter; stroke-miterlimit: 4; fill: rgb(27,27,27); fill-rule: nonzero; opacity: 1;" vector-effect="non-scaling-stroke"  transform=" translate(-20, -20)" d="M 20 0 C 31.04 0 40 8.96 40 20 C 40 31.04 31.04 40 20 40 C 8.96 40 0 31.04 0 20 C 0 8.96 8.96 0 20 0 z" stroke-linecap="round" />
</g>
<g transform="matrix(1 0 0 1 335 250)" id="YUs5_PmZBa1tTZiCrOcnZ"  >
<path style="stroke: rgb(172,255,42); stroke-width: 0; stroke-dasharray: none; stroke-linecap: butt; stroke-dashoffset: 0; stroke-linejoin: miter; stroke-miterlimit: 4; fill: rgb(27,27,27); fill-rule: nonzero; opacity: 1;" vector-effect="non-scaling-stroke"  transform=" translate(-20, -20)" d="M 20 0 C 31.04 0 40 8.96 40 20 C 40 31.04 31.04 40 20 40 C 8.96 40 0 31.04 0 20 C 0 8.96 8.96 0 20 0 z" stroke-linecap="round" />
</g>
<g transform="matrix(1 0 0 1 380 250)" id="o_t3kgiifNMqFncrsxfdY"  >
<path style="stroke: rgb(172,255,42); stroke-width: 0; stroke-dasharray: none; stroke-linecap: butt; stroke-dashoffset: 0; stroke-linejoin: miter; stroke-miterlimit: 4; fill: rgb(27,27,27); fill-rule: nonzero; opacity: 1;" vector-effect="non-scaling-stroke"  transform=" translate(-20, -20)" d="M 20 0 C 31.04 0 40 8.96 40 20 C 40 31.04 31.04 40 20 40 C 8.96 40 0 31.04 0 20 C 0 8.96 8.96 0 20 0 z" stroke-linecap="round" />
</g>
<g transform="matrix(1 0 0 1 425 250)" id="cErxeCihaIh079_iFAwOg"  >
<path style="stroke: rgb(172,255,42); stroke-width: 0; stroke-dasharray: none; stroke-linecap: butt; stroke-dashoffset: 0; stroke-linejoin: miter; stroke-miterlimit: 4; fill: rgb(27,27,27); fill-rule: nonzero; opacity: 1;" vector-effect="non-scaling-stroke"  transform=" translate(-20, -20)" d="M 20 0 C 31.04 0 40 8.96 40 20 C 40 31.04 31.04 40 20 40 C 8.96 40 0 31.04 0 20 C 0 8.96 8.96 0 20 0 z" stroke-linecap="round" />
</g>
<g transform="matrix(1 0 0 1 470 250)" id="K8bLHTD0spUlVMLFyHnxw"  >
<path style="stroke: rgb(172,255,42); stroke-width: 0; stroke-dasharray: none; stroke-linecap: butt; stroke-dashoffset: 0; stroke-linejoin: miter; stroke-miterlimit: 4; fill: rgb(27,27,27); fill-rule: nonzero; opacity: 1;" vector-effect="non-scaling-stroke"  transform=" translate(-20, -20)" d="M 20 0 C 31.04 0 40 8.96 40 20 C 40 31.04 31.04 40 20 40 C 8.96 40 0 31.04 0 20 C 0 8.96 8.96 0 20 0 z" stroke-linecap="round" />
</g>
<g transform="matrix(1 0 0 1 515 250)" id="uPwDSu2S9pNxZ-KeXDd2P"  >
<path style="stroke: rgb(172,255,42); stroke-width: 0; stroke-dasharray: none; stroke-linecap: butt; stroke-dashoffset: 0; stroke-linejoin: miter; stroke-miterlimit: 4; fill: rgb(27,27,27); fill-rule: nonzero; opacity: 1;" vector-effect="non-scaling-stroke"  transform=" translate(-20, -20)" d="M 20 0 C 31.04 0 40 8.96 40 20 C 40 31.04 31.04 40 20 40 C 8.96 40 0 31.04 0 20 C 0 8.96 8.96 0 20 0 z" stroke-linecap="round" />
</g>
<g transform="matrix(1 0 0 1 560 250)" id="G1oAIt8qlY5dEkkFrjY1J"  >
<path style="stroke: rgb(172,255,42); stroke-width: 0; stroke-dasharray: none; stroke-linecap: butt; stroke-dashoffset: 0; stroke-linejoin: miter; stroke-miterlimit: 4; fill: rgb(27,27,27); fill-rule: nonzero; opacity: 1;" vector-effect="non-scaling-stroke"  transform=" translate(-20, -20)" d="M 20 0 C 31.04 0 40 8.96 40 20 C 40 31.04 31.04 40 20 40 C 8.96 40 0 31.04 0 20 C 0 8.96 8.96 0 20 0 z" stroke-linecap="round" />
</g>
<g transform="matrix(1 0 0 1 605 250)" id="VqEynmIiKKwCqeld4Tzke"  >
<path style="stroke: rgb(172,255,42); stroke-width: 0; stroke-dasharray: none; stroke-linecap: butt; stroke-dashoffset: 0; stroke-linejoin: miter; stroke-miterlimit: 4; fill: rgb(27,27,27); fill-rule: nonzero; opacity: 1;" vector-effect="non-scaling-stroke"  transform=" translate(-20, -20)" d="M 20 0 C 31.04 0 40 8.96 40 20 C 40 31.04 31.04 40 20 40 C 8.96 40 0 31.04 0 20 C 0 8.96 8.96 0 20 0 z" stroke-linecap="round" />
</g>
<g transform="matrix(1 0 0 1 650 250)" id="FdkxrXg--mlpKNDJtHWWm"  >
<path style="stroke: rgb(172,255,42); stroke-width: 0; stroke-dasharray: none; stroke-linecap: butt; stroke-dashoffset: 0; stroke-linejoin: miter; stroke-miterlimit: 4; fill: rgb(27,27,27); fill-rule: nonzero; opacity: 1;" vector-effect="non-scaling-stroke"  transform=" translate(-20, -20)" d="M 20 0 C 31.04 0 40 8.96 40 20 C 40 31.04 31.04 40 20 40 C 8.96 40 0 31.04 0 20 C 0 8.96 8.96 0 20 0 z" stroke-linecap="round" />
</g>
<g transform="matrix(1 0 0 1 695 250)" id="iw5F7dUkMq8Zy6b1ELLz-"  >
<path style="stroke: rgb(172,255,42); stroke-width: 0; stroke-dasharray: none; stroke-linecap: butt; stroke-dashoffset: 0; stroke-linejoin: miter; stroke-miterlimit: 4; fill: rgb(27,27,27); fill-rule: nonzero; opacity: 1;" vector-effect="non-scaling-stroke"  transform=" translate(-20, -20)" d="M 20 0 C 31.04 0 40 8.96 40 20 C 40 31.04 31.04 40 20 40 C 8.96 40 0 31.04 0 20 C 0 8.96 8.96 0 20 0 z" stroke-linecap="round" />
</g>
<g transform="matrix(1 0 0 1 740 250)" id="vGNj0OTABBkxrK__NpUC5"  >
<path style="stroke: rgb(172,255,42); stroke-width: 0; stroke-dasharray: none; stroke-linecap: butt; stroke-dashoffset: 0; stroke-linejoin: miter; stroke-miterlimit: 4; fill: rgb(27,27,27); fill-rule: nonzero; opacity: 1;" vector-effect="non-scaling-stroke"  transform=" translate(-20, -20)" d="M 20 0 C 31.04 0 40 8.96 40 20 C 40 31.04 31.04 40 20 40 C 8.96 40 0 31.04 0 20 C 0 8.96 8.96 0 20 0 z" stroke-linecap="round" />
</g>
<g transform="matrix(1 0 0 1 785 250)" id="9uQM7D6f5iElr4siYqp_F"  >
<path style="stroke: rgb(172,255,42); stroke-width: 0; stroke-dasharray: none; stroke-linecap: butt; stroke-dashoffset: 0; stroke-linejoin: miter; stroke-miterlimit: 4; fill: rgb(27,27,27); fill-rule: nonzero; opacity: 1;" vector-effect="non-scaling-stroke"  transform=" translate(-20, -20)" d="M 20 0 C 31.04 0 40 8.96 40 20 C 40 31.04 31.04 40 20 40 C 8.96 40 0 31.04 0 20 C 0 8.96 8.96 0 20 0 z" stroke-linecap="round" />
</g>
<g transform="matrix(1 0 0 1 830 250)" id="1EfdqBixe6_er00Nhzuhw"  >
<path style="stroke: rgb(172,255,42); stroke-width: 0; stroke-dasharray: none; stroke-linecap: butt; stroke-dashoffset: 0; stroke-linejoin: miter; stroke-miterlimit: 4; fill: rgb(27,27,27); fill-rule: nonzero; opacity: 1;" vector-effect="non-scaling-stroke"  transform=" translate(-20, -20)" d="M 20 0 C 31.04 0 40 8.96 40 20 C 40 31.04 31.04 40 20 40 C 8.96 40 0 31.04 0 20 C 0 8.96 8.96 0 20 0 z" stroke-linecap="round" />
</g>
<g transform="matrix(1 0 0 1 875 250)" id="WFOgy03EtCBWA84_8o6-D"  >
<path style="stroke: rgb(172,255,42); stroke-width: 0; stroke-dasharray: none; stroke-linecap: butt; stroke-dashoffset: 0; stroke-linejoin: miter; stroke-miterlimit: 4; fill: rgb(27,27,27); fill-rule: nonzero; opacity: 1;" vector-effect="non-scaling-stroke"  transform=" translate(-20, -20)" d="M 20 0 C 31.04 0 40 8.96 40 20 C 40 31.04 31.04 40 20 40 C 8.96 40 0 31.04 0 20 C 0 8.96 8.96 0 20 0 z" stroke-linecap="round" />
</g>
<g transform="matrix(1 0 0 1 920 250)" id="Db7GVhzrfjbVTjRn4RQOL"  >
<path style="stroke: rgb(172,255,42); stroke-width: 0; stroke-dasharray: none; stroke-linecap: butt; stroke-dashoffset: 0; stroke-linejoin: miter; stroke-miterlimit: 4; fill: rgb(27,27,27); fill-rule: nonzero; opacity: 1;" vector-effect="non-scaling-stroke"  transform=" translate(-20, -20)" d="M 20 0 C 31.04 0 40 8.96 40 20 C 40 31.04 31.04 40 20 40 C 8.96 40 0 31.04 0 20 C 0 8.96 8.96 0 20 0 z" stroke-linecap="round" />
</g>
<g transform="matrix(1 0 0 1 965 250)" id="sCpgM_L6-3MdKvmwvxxMM"  >
<path style="stroke: rgb(172,255,42); stroke-width: 0; stroke-dasharray: none; stroke-linecap: butt; stroke-dashoffset: 0; stroke-linejoin: miter; stroke-miterlimit: 4; fill: rgb(27,27,27); fill-rule: nonzero; opacity: 1;" vector-effect="non-scaling-stroke"  transform=" translate(-20, -20)" d="M 20 0 C 31.04 0 40 8.96 40 20 C 40 31.04 31.04 40 20 40 C 8.96 40 0 31.04 0 20 C 0 8.96 8.96 0 20 0 z" stroke-linecap="round" />
</g>
<g transform="matrix(1 0 0 1 1010 250)" id="idJcKeuGMsemoFnbgebrO"  >
<path style="stroke: rgb(172,255,42); stroke-width: 0; stroke-dasharray: none; stroke-linecap: butt; stroke-dashoffset: 0; stroke-linejoin: miter; stroke-miterlimit: 4; fill: rgb(27,27,27); fill-rule: nonzero; opacity: 1;" vector-effect="non-scaling-stroke"  transform=" translate(-20, -20)" d="M 20 0 C 31.04 0 40 8.96 40 20 C 40 31.04 31.04 40 20 40 C 8.96 40 0 31.04 0 20 C 0 8.96 8.96 0 20 0 z" stroke-linecap="round" />
</g>
<g transform="matrix(1 0 0 1 1055 250)" id="NQ7F-RN95wW-9s4bKEAtp"  >
<path style="stroke: rgb(172,255,42); stroke-width: 0; stroke-dasharray: none; stroke-linecap: butt; stroke-dashoffset: 0; stroke-linejoin: miter; stroke-miterlimit: 4; fill: rgb(27,27,27); fill-rule: nonzero; opacity: 1;" vector-effect="non-scaling-stroke"  transform=" translate(-20, -20)" d="M 20 0 C 31.04 0 40 8.96 40 20 C 40 31.04 31.04 40 20 40 C 8.96 40 0 31.04 0 20 C 0 8.96 8.96 0 20 0 z" stroke-linecap="round" />
</g>
<g transform="matrix(1 0 0 1 1100 250)" id="EUIAZ9vTCqbDkjB3xngj1"  >
<path style="stroke: rgb(172,255,42); stroke-width: 0; stroke-dasharray: none; stroke-linecap: butt; stroke-dashoffset: 0; stroke-linejoin: miter; stroke-miterlimit: 4; fill: rgb(27,27,27); fill-rule: nonzero; opacity: 1;" vector-effect="non-scaling-stroke"  transform=" translate(-20, -20)" d="M 20 0 C 31.04 0 40 8.96 40 20 C 40 31.04 31.04 40 20 40 C 8.96 40 0 31.04 0 20 C 0 8.96 8.96 0 20 0 z" stroke-linecap="round" />
</g>
<g transform="matrix(1 0 0 1 1145 250)" id="ezRAP2vM30miHSGJnTlP-"  >
<path style="stroke: rgb(172,255,42); stroke-width: 0; stroke-dasharray: none; stroke-linecap: butt; stroke-dashoffset: 0; stroke-linejoin: miter; stroke-miterlimit: 4; fill: rgb(27,27,27); fill-rule: nonzero; opacity: 1;" vector-effect="non-scaling-stroke"  transform=" translate(-20, -20)" d="M 20 0 C 31.04 0 40 8.96 40 20 C 40 31.04 31.04 40 20 40 C 8.96 40 0 31.04 0 20 C 0 8.96 8.96 0 20 0 z" stroke-linecap="round" />
</g>
<g transform="matrix(1 0 0 1 1190 250)" id="ga5XKSWlsNyi1hTQXPHzS"  >
<path style="stroke: rgb(172,255,42); stroke-width: 0; stroke-dasharray: none; stroke-linecap: butt; stroke-dashoffset: 0; stroke-linejoin: miter; stroke-miterlimit: 4; fill: rgb(27,27,27); fill-rule: nonzero; opacity: 1;" vector-effect="non-scaling-stroke"  transform=" translate(-20, -20)" d="M 20 0 C 31.04 0 40 8.96 40 20 C 40 31.04 31.04 40 20 40 C 8.96 40 0 31.04 0 20 C 0 8.96 8.96 0 20 0 z" stroke-linecap="round" />
</g>
<g transform="matrix(1 0 0 1 1235 250)" id="uDdakzhusoztoUpRbU3Vh"  >
<path style="stroke: rgb(172,255,42); stroke-width: 0; stroke-dasharray: none; stroke-linecap: butt; stroke-dashoffset: 0; stroke-linejoin: miter; stroke-miterlimit: 4; fill: rgb(27,27,27); fill-rule: nonzero; opacity: 1;" vector-effect="non-scaling-stroke"  transform=" translate(-20, -20)" d="M 20 0 C 31.04 0 40 8.96 40 20 C 40 31.04 31.04 40 20 40 C 8.96 40 0 31.04 0 20 C 0 8.96 8.96 0 20 0 z" stroke-linecap="round" />
</g>
<g transform="matrix(1 0 0 1 1280 250)" id="M5IrrC3klQPWgaf-mNAr_"  >
<path style="stroke: rgb(172,255,42); stroke-width: 0; stroke-dasharray: none; stroke-linecap: butt; stroke-dashoffset: 0; stroke-linejoin: miter; stroke-miterlimit: 4; fill: rgb(27,27,27); fill-rule: nonzero; opacity: 1;" vector-effect="non-scaling-stroke"  transform=" translate(-20, -20)" d="M 20 0 C 31.04 0 40 8.96 40 20 C 40 31.04 31.04 40 20 40 C 8.96 40 0 31.04 0 20 C 0 8.96 8.96 0 20 0 z" stroke-linecap="round" />
</g>
<g transform="matrix(1 0 0 1 1325 250)" id="v0rdfAt0wQdRZm7njzuU3"  >
<path style="stroke: rgb(172,255,42); stroke-width: 0; stroke-dasharray: none; stroke-linecap: butt; stroke-dashoffset: 0; stroke-linejoin: miter; stroke-miterlimit: 4; fill: rgb(27,27,27); fill-rule: nonzero; opacity: 1;" vector-effect="non-scaling-stroke"  transform=" translate(-20, -20)" d="M 20 0 C 31.04 0 40 8.96 40 20 C 40 31.04 31.04 40 20 40 C 8.96 40 0 31.04 0 20 C 0 8.96 8.96 0 20 0 z" stroke-linecap="round" />
</g>
<g transform="matrix(1 0 0 1 1370 250)" id="tufJRTxrkMreLsTEQrRYU"  >
<path style="stroke: rgb(172,255,42); stroke-width: 0; stroke-dasharray: none; stroke-linecap: butt; stroke-dashoffset: 0; stroke-linejoin: miter; stroke-miterlimit: 4; fill: rgb(27,27,27); fill-rule: nonzero; opacity: 1;" vector-effect="non-scaling-stroke"  transform=" translate(-20, -20)" d="M 20 0 C 31.04 0 40 8.96 40 20 C 40 31.04 31.04 40 20 40 C 8.96 40 0 31.04 0 20 C 0 8.96 8.96 0 20 0 z" stroke-linecap="round" />
</g>
<g transform="matrix(1 0 0 1 1415 250)" id="I6ufQeXDZbRN-QkhnUeiD"  >
<path style="stroke: rgb(172,255,42); stroke-width: 0; stroke-dasharray: none; stroke-linecap: butt; stroke-dashoffset: 0; stroke-linejoin: miter; stroke-miterlimit: 4; fill: rgb(27,27,27); fill-rule: nonzero; opacity: 1;" vector-effect="non-scaling-stroke"  transform=" translate(-20, -20)" d="M 20 0 C 31.04 0 40 8.96 40 20 C 40 31.04 31.04 40 20 40 C 8.96 40 0 31.04 0 20 C 0 8.96 8.96 0 20 0 z" stroke-linecap="round" />
</g>
<g transform="matrix(1 0 0 1 1460 250)" id="Fw_1qXVIY3OmDLfdW2qhF"  >
<path style="stroke: rgb(172,255,42); stroke-width: 0; stroke-dasharray: none; stroke-linecap: butt; stroke-dashoffset: 0; stroke-linejoin: miter; stroke-miterlimit: 4; fill: rgb(27,27,27); fill-rule: nonzero; opacity: 1;" vector-effect="non-scaling-stroke"  transform=" translate(-20, -20)" d="M 20 0 C 31.04 0 40 8.96 40 20 C 40 31.04 31.04 40 20 40 C 8.96 40 0 31.04 0 20 C 0 8.96 8.96 0 20 0 z" stroke-linecap="round" />
</g>
<g transform="matrix(1 0 0 1 1505 250)" id="_mKS1IyY152_s2JcFwXMM"  >
<path style="stroke: rgb(172,255,42); stroke-width: 0; stroke-dasharray: none; stroke-linecap: butt; stroke-dashoffset: 0; stroke-linejoin: miter; stroke-miterlimit: 4; fill: rgb(27,27,27); fill-rule: nonzero; opacity: 1;" vector-effect="non-scaling-stroke"  transform=" translate(-20, -20)" d="M 20 0 C 31.04 0 40 8.96 40 20 C 40 31.04 31.04 40 20 40 C 8.96 40 0 31.04 0 20 C 0 8.96 8.96 0 20 0 z" stroke-linecap="round" />
</g>
<g transform="matrix(1 0 0 1 1550 250)" id="cR-JwFIvPe4aZK7pv_oYn"  >
<path style="stroke: rgb(172,255,42); stroke-width: 0; stroke-dasharray: none; stroke-linecap: butt; stroke-dashoffset: 0; stroke-linejoin: miter; stroke-miterlimit: 4; fill: rgb(27,27,27); fill-rule: nonzero; opacity: 1;" vector-effect="non-scaling-stroke"  transform=" translate(-20, -20)" d="M 20 0 C 31.04 0 40 8.96 40 20 C 40 31.04 31.04 40 20 40 C 8.96 40 0 31.04 0 20 C 0 8.96 8.96 0 20 0 z" stroke-linecap="round" />
</g>
<g transform="matrix(1 0 0 1 1595 250)" id="exRHWHDspYTPALBuVbgaY"  >
<path style="stroke: rgb(172,255,42); stroke-width: 0; stroke-dasharray: none; stroke-linecap: butt; stroke-dashoffset: 0; stroke-linejoin: miter; stroke-miterlimit: 4; fill: rgb(27,27,27); fill-rule: nonzero; opacity: 1;" vector-effect="non-scaling-stroke"  transform=" translate(-20, -20)" d="M 20 0 C 31.04 0 40 8.96 40 20 C 40 31.04 31.04 40 20 40 C 8.96 40 0 31.04 0 20 C 0 8.96 8.96 0 20 0 z" stroke-linecap="round" />
</g>
<g transform="matrix(1 0 0 1 1640 250)" id="nAcXdaJV6-BjX5EXdzAVM"  >
<path style="stroke: rgb(172,255,42); stroke-width: 0; stroke-dasharray: none; stroke-linecap: butt; stroke-dashoffset: 0; stroke-linejoin: miter; stroke-miterlimit: 4; fill: rgb(27,27,27); fill-rule: nonzero; opacity: 1;" vector-effect="non-scaling-stroke"  transform=" translate(-20, -20)" d="M 20 0 C 31.04 0 40 8.96 40 20 C 40 31.04 31.04 40 20 40 C 8.96 40 0 31.04 0 20 C 0 8.96 8.96 0 20 0 z" stroke-linecap="round" />
</g>
<g transform="matrix(1 0 0 1 1685 250)" id="djCOvGI_yIGJxz-56S9n6"  >
<path style="stroke: rgb(172,255,42); stroke-width: 0; stroke-dasharray: none; stroke-linecap: butt; stroke-dashoffset: 0; stroke-linejoin: miter; stroke-miterlimit: 4; fill: rgb(27,27,27); fill-rule: nonzero; opacity: 1;" vector-effect="non-scaling-stroke"  transform=" translate(-20, -20)" d="M 20 0 C 31.04 0 40 8.96 40 20 C 40 31.04 31.04 40 20 40 C 8.96 40 0 31.04 0 20 C 0 8.96 8.96 0 20 0 z" stroke-linecap="round" />
</g>
<g transform="matrix(1 0 0 1 1730 250)" id="mFXX94wGcNBwfzzXd2AfE"  >
<path style="stroke: rgb(172,255,42); stroke-width: 0; stroke-dasharray: none; stroke-linecap: butt; stroke-dashoffset: 0; stroke-linejoin: miter; stroke-miterlimit: 4; fill: rgb(27,27,27); fill-rule: nonzero; opacity: 1;" vector-effect="non-scaling-stroke"  transform=" translate(-20, -20)" d="M 20 0 C 31.04 0 40 8.96 40 20 C 40 31.04 31.04 40 20 40 C 8.96 40 0 31.04 0 20 C 0 8.96 8.96 0 20 0 z" stroke-linecap="round" />
</g>
<g transform="matrix(1 0 0 1 1775 250)" id="wsqvTTtcXnU-qLkn_r7ZH"  >
<path style="stroke: rgb(172,255,42); stroke-width: 0; stroke-dasharray: none; stroke-linecap: butt; stroke-dashoffset: 0; stroke-linejoin: miter; stroke-miterlimit: 4; fill: rgb(27,27,27); fill-rule: nonzero; opacity: 1;" vector-effect="non-scaling-stroke"  transform=" translate(-20, -20)" d="M 20 0 C 31.04 0 40 8.96 40 20 C 40 31.04 31.04 40 20 40 C 8.96 40 0 31.04 0 20 C 0 8.96 8.96 0 20 0 z" stroke-linecap="round" />
</g>
<g transform="matrix(1 0 0 1 1820 250)" id="Tn8kJnYU7xCXsIgUgxByY"  >
<path style="stroke: rgb(172,255,42); stroke-width: 0; stroke-dasharray: none; stroke-linecap: butt; stroke-dashoffset: 0; stroke-linejoin: miter; stroke-miterlimit: 4; fill: rgb(27,27,27); fill-rule: nonzero; opacity: 1;" vector-effect="non-scaling-stroke"  transform=" translate(-20, -20)" d="M 20 0 C 31.04 0 40 8.96 40 20 C 40 31.04 31.04 40 20 40 C 8.96 40 0 31.04 0 20 C 0 8.96 8.96 0 20 0 z" stroke-linecap="round" />
</g>
<g transform="matrix(1 0 0 1 1865 250)" id="7VrTMD7rIVVATw1A3OtBv"  >
<path style="stroke: rgb(172,255,42); stroke-width: 0; stroke-dasharray: none; stroke-linecap: butt; stroke-dashoffset: 0; stroke-linejoin: miter; stroke-miterlimit: 4; fill: rgb(27,27,27); fill-rule: nonzero; opacity: 1;" vector-effect="non-scaling-stroke"  transform=" translate(-20, -20)" d="M 20 0 C 31.04 0 40 8.96 40 20 C 40 31.04 31.04 40 20 40 C 8.96 40 0 31.04 0 20 C 0 8.96 8.96 0 20 0 z" stroke-linecap="round" />
</g>
<g transform="matrix(1 0 0 1 1910 250)" id="BB_TL4YGJ3mDftqslFM74"  >
<path style="stroke: rgb(172,255,42); stroke-width: 0; stroke-dasharray: none; stroke-linecap: butt; stroke-dashoffset: 0; stroke-linejoin: miter; stroke-miterlimit: 4; fill: rgb(27,27,27); fill-rule: nonzero; opacity: 1;" vector-effect="non-scaling-stroke"  transform=" translate(-20, -20)" d="M 20 0 C 31.04 0 40 8.96 40 20 C 40 31.04 31.04 40 20 40 C 8.96 40 0 31.04 0 20 C 0 8.96 8.96 0 20 0 z" stroke-linecap="round" />
</g>
<g transform="matrix(1 0 0 1 1955 250)" id="SGWCNL3FTl3GJI7GN78ZQ"  >
<path style="stroke: rgb(172,255,42); stroke-width: 0; stroke-dasharray: none; stroke-linecap: butt; stroke-dashoffset: 0; stroke-linejoin: miter; stroke-miterlimit: 4; fill: rgb(27,27,27); fill-rule: nonzero; opacity: 1;" vector-effect="non-scaling-stroke"  transform=" translate(-20, -20)" d="M 20 0 C 31.04 0 40 8.96 40 20 C 40 31.04 31.04 40 20 40 C 8.96 40 0 31.04 0 20 C 0 8.96 8.96 0 20 0 z" stroke-linecap="round" />
</g>
<g transform="matrix(1.66 0 0 0.02 988.85 238.63)" id="1hvwBXEiDKC97DpRqIeS2"  >
<path style="stroke: rgb(161,117,25); stroke-width: 0; stroke-dasharray: none; stroke-linecap: butt; stroke-dashoffset: 0; stroke-linejoin: miter; stroke-miterlimit: 4; fill: rgb(59,59,59); fill-rule: nonzero; opacity: 1;" vector-effect="non-scaling-stroke"  transform=" translate(0, 0)" d="M -595.5 -595.5 L 595.5 -595.5 L 595.5 595.5 L -595.5 595.5 z" stroke-linecap="round" />
</g>
<g transform="matrix(1.66 0 0 0.01 988.1 121.85)" id="JqM5PX9P9UhTBbrQ4gtpg"  >
<path style="stroke: rgb(161,117,25); stroke-width: 0; stroke-dasharray: none; stroke-linecap: butt; stroke-dashoffset: 0; stroke-linejoin: miter; stroke-miterlimit: 4; fill: rgb(59,59,59); fill-rule: nonzero; opacity: 1;" vector-effect="non-scaling-stroke"  transform=" translate(0, 0)" d="M -595.5 -595.5 L 595.5 -595.5 L 595.5 595.5 L -595.5 595.5 z" stroke-linecap="round" />
</g>
</svg>